<mxfile host="Electron" modified="2024-03-24T05:48:01.940Z" agent="Mozilla/5.0 (Macintosh; Intel Mac OS X 10_15_7) AppleWebKit/537.36 (KHTML, like Gecko) draw.io/24.1.0 Chrome/120.0.6099.109 Electron/28.1.0 Safari/537.36" etag="kVZVBq-BrJUKWc8L0HG7" version="24.1.0" type="device">
  <diagram id="C5RBs43oDa-KdzZeNtuy" name="Page-1">
    <mxGraphModel dx="1026" dy="743" grid="1" gridSize="10" guides="1" tooltips="1" connect="1" arrows="1" fold="1" page="1" pageScale="1" pageWidth="827" pageHeight="1169" math="0" shadow="0">
      <root>
        <mxCell id="WIyWlLk6GJQsqaUBKTNV-0" />
        <mxCell id="WIyWlLk6GJQsqaUBKTNV-1" parent="WIyWlLk6GJQsqaUBKTNV-0" />
        <mxCell id="zkfFHV4jXpPFQw0GAbJ--17" value="&lt;&lt;interface&gt;&gt;&#xa;PizzaIngredientFactory" style="swimlane;fontStyle=1;align=center;verticalAlign=top;childLayout=stackLayout;horizontal=1;startSize=40;horizontalStack=0;resizeParent=1;resizeLast=0;collapsible=1;marginBottom=0;rounded=0;shadow=0;strokeWidth=1;" parent="WIyWlLk6GJQsqaUBKTNV-1" vertex="1">
          <mxGeometry x="280" y="50" width="160" height="130" as="geometry">
            <mxRectangle x="550" y="140" width="160" height="26" as="alternateBounds" />
          </mxGeometry>
        </mxCell>
        <mxCell id="zkfFHV4jXpPFQw0GAbJ--18" value="createSauce()&#xa;createCheese()&#xa;createClam()&#xa;" style="text;align=left;verticalAlign=top;spacingLeft=4;spacingRight=4;overflow=hidden;rotatable=0;points=[[0,0.5],[1,0.5]];portConstraint=eastwest;" parent="zkfFHV4jXpPFQw0GAbJ--17" vertex="1">
          <mxGeometry y="40" width="160" height="90" as="geometry" />
        </mxCell>
        <mxCell id="k7H9lZoIsquwD9JlWi5O-0" value="&lt;pre style=&quot;background-color:#2b2b2b;color:#a9b7c6;font-family:&#39;JetBrains Mono&#39;,monospace;font-size:9.8pt;&quot;&gt;ChicagoPizzaIngredientFactory&lt;/pre&gt;" style="swimlane;fontStyle=0;childLayout=stackLayout;horizontal=1;startSize=26;fillColor=none;horizontalStack=0;resizeParent=1;resizeParentMax=0;resizeLast=0;collapsible=1;marginBottom=0;whiteSpace=wrap;html=1;" vertex="1" parent="WIyWlLk6GJQsqaUBKTNV-1">
          <mxGeometry x="70" y="270" width="240" height="90" as="geometry" />
        </mxCell>
        <mxCell id="k7H9lZoIsquwD9JlWi5O-2" value="createSauce() {...}&lt;br style=&quot;padding: 0px; margin: 0px;&quot;&gt;createCheese() {...}&lt;div&gt;createClam() {...}&lt;div style=&quot;padding: 0px; margin: 0px;&quot;&gt;&lt;br style=&quot;padding: 0px; margin: 0px; text-wrap: nowrap;&quot;&gt;&lt;/div&gt;&lt;/div&gt;" style="text;strokeColor=none;fillColor=none;align=left;verticalAlign=top;spacingLeft=4;spacingRight=4;overflow=hidden;rotatable=0;points=[[0,0.5],[1,0.5]];portConstraint=eastwest;whiteSpace=wrap;html=1;" vertex="1" parent="k7H9lZoIsquwD9JlWi5O-0">
          <mxGeometry y="26" width="240" height="64" as="geometry" />
        </mxCell>
        <mxCell id="k7H9lZoIsquwD9JlWi5O-4" value="&lt;pre style=&quot;background-color:#2b2b2b;color:#a9b7c6;font-family:&#39;JetBrains Mono&#39;,monospace;font-size:9.8pt;&quot;&gt;NYPizzaIngredientFactory&lt;/pre&gt;" style="swimlane;fontStyle=0;childLayout=stackLayout;horizontal=1;startSize=26;fillColor=none;horizontalStack=0;resizeParent=1;resizeParentMax=0;resizeLast=0;collapsible=1;marginBottom=0;whiteSpace=wrap;html=1;" vertex="1" parent="WIyWlLk6GJQsqaUBKTNV-1">
          <mxGeometry x="450" y="270" width="210" height="90" as="geometry" />
        </mxCell>
        <mxCell id="k7H9lZoIsquwD9JlWi5O-5" value="createSauce() {...}&lt;br style=&quot;padding: 0px; margin: 0px;&quot;&gt;createCheese() {...}&lt;br style=&quot;padding: 0px; margin: 0px;&quot;&gt;createClam() {...}&lt;div style=&quot;padding: 0px; margin: 0px;&quot;&gt;&lt;br style=&quot;padding: 0px; margin: 0px; text-wrap: nowrap;&quot;&gt;&lt;/div&gt;" style="text;strokeColor=none;fillColor=none;align=left;verticalAlign=top;spacingLeft=4;spacingRight=4;overflow=hidden;rotatable=0;points=[[0,0.5],[1,0.5]];portConstraint=eastwest;whiteSpace=wrap;html=1;" vertex="1" parent="k7H9lZoIsquwD9JlWi5O-4">
          <mxGeometry y="26" width="210" height="64" as="geometry" />
        </mxCell>
        <mxCell id="k7H9lZoIsquwD9JlWi5O-12" value="«interface»&lt;br&gt;&lt;b&gt;Sauce&lt;/b&gt;" style="html=1;whiteSpace=wrap;" vertex="1" parent="WIyWlLk6GJQsqaUBKTNV-1">
          <mxGeometry x="160" y="470" width="110" height="50" as="geometry" />
        </mxCell>
        <mxCell id="k7H9lZoIsquwD9JlWi5O-13" value="«interface»&lt;br&gt;&lt;b&gt;Cheese&lt;/b&gt;" style="html=1;whiteSpace=wrap;" vertex="1" parent="WIyWlLk6GJQsqaUBKTNV-1">
          <mxGeometry x="390" y="470" width="110" height="50" as="geometry" />
        </mxCell>
        <mxCell id="k7H9lZoIsquwD9JlWi5O-14" value="«interface»&lt;br&gt;&lt;b&gt;Clam&lt;/b&gt;" style="html=1;whiteSpace=wrap;" vertex="1" parent="WIyWlLk6GJQsqaUBKTNV-1">
          <mxGeometry x="630" y="470" width="110" height="50" as="geometry" />
        </mxCell>
        <mxCell id="k7H9lZoIsquwD9JlWi5O-15" value="MarinaraSauce" style="swimlane;fontStyle=0;childLayout=stackLayout;horizontal=1;startSize=26;fillColor=none;horizontalStack=0;resizeParent=1;resizeParentMax=0;resizeLast=0;collapsible=1;marginBottom=0;whiteSpace=wrap;html=1;" vertex="1" parent="WIyWlLk6GJQsqaUBKTNV-1">
          <mxGeometry x="60" y="580" width="110" height="52" as="geometry" />
        </mxCell>
        <mxCell id="k7H9lZoIsquwD9JlWi5O-19" value="" style="endArrow=block;dashed=1;endFill=0;endSize=12;html=1;rounded=0;exitX=0.413;exitY=-0.044;exitDx=0;exitDy=0;exitPerimeter=0;entryX=0.225;entryY=0.989;entryDx=0;entryDy=0;entryPerimeter=0;" edge="1" parent="WIyWlLk6GJQsqaUBKTNV-1" source="k7H9lZoIsquwD9JlWi5O-0" target="zkfFHV4jXpPFQw0GAbJ--18">
          <mxGeometry width="160" relative="1" as="geometry">
            <mxPoint x="150" y="230" as="sourcePoint" />
            <mxPoint x="310" y="230" as="targetPoint" />
          </mxGeometry>
        </mxCell>
        <mxCell id="k7H9lZoIsquwD9JlWi5O-20" value="" style="endArrow=block;dashed=1;endFill=0;endSize=12;html=1;rounded=0;exitX=0.348;exitY=-0.011;exitDx=0;exitDy=0;exitPerimeter=0;entryX=0.775;entryY=1.056;entryDx=0;entryDy=0;entryPerimeter=0;" edge="1" parent="WIyWlLk6GJQsqaUBKTNV-1" source="k7H9lZoIsquwD9JlWi5O-4" target="zkfFHV4jXpPFQw0GAbJ--18">
          <mxGeometry width="160" relative="1" as="geometry">
            <mxPoint x="179" y="276" as="sourcePoint" />
            <mxPoint x="326" y="189" as="targetPoint" />
          </mxGeometry>
        </mxCell>
        <mxCell id="k7H9lZoIsquwD9JlWi5O-21" value="PlumTomatoSauce" style="swimlane;fontStyle=0;childLayout=stackLayout;horizontal=1;startSize=26;fillColor=none;horizontalStack=0;resizeParent=1;resizeParentMax=0;resizeLast=0;collapsible=1;marginBottom=0;whiteSpace=wrap;html=1;" vertex="1" parent="WIyWlLk6GJQsqaUBKTNV-1">
          <mxGeometry x="220" y="580" width="110" height="52" as="geometry" />
        </mxCell>
        <mxCell id="k7H9lZoIsquwD9JlWi5O-22" value="ReggianoCheese" style="swimlane;fontStyle=0;childLayout=stackLayout;horizontal=1;startSize=26;fillColor=none;horizontalStack=0;resizeParent=1;resizeParentMax=0;resizeLast=0;collapsible=1;marginBottom=0;whiteSpace=wrap;html=1;" vertex="1" parent="WIyWlLk6GJQsqaUBKTNV-1">
          <mxGeometry x="390" y="580" width="110" height="52" as="geometry" />
        </mxCell>
        <mxCell id="k7H9lZoIsquwD9JlWi5O-23" value="FreshClams" style="swimlane;fontStyle=0;childLayout=stackLayout;horizontal=1;startSize=26;fillColor=none;horizontalStack=0;resizeParent=1;resizeParentMax=0;resizeLast=0;collapsible=1;marginBottom=0;whiteSpace=wrap;html=1;" vertex="1" parent="WIyWlLk6GJQsqaUBKTNV-1">
          <mxGeometry x="550" y="580" width="110" height="52" as="geometry" />
        </mxCell>
        <mxCell id="k7H9lZoIsquwD9JlWi5O-24" value="FrozenClams" style="swimlane;fontStyle=0;childLayout=stackLayout;horizontal=1;startSize=26;fillColor=none;horizontalStack=0;resizeParent=1;resizeParentMax=0;resizeLast=0;collapsible=1;marginBottom=0;whiteSpace=wrap;html=1;" vertex="1" parent="WIyWlLk6GJQsqaUBKTNV-1">
          <mxGeometry x="700" y="580" width="110" height="52" as="geometry" />
        </mxCell>
        <mxCell id="k7H9lZoIsquwD9JlWi5O-25" value="" style="endArrow=block;dashed=1;endFill=0;endSize=12;html=1;rounded=0;exitX=0.6;exitY=0.019;exitDx=0;exitDy=0;exitPerimeter=0;entryX=0.25;entryY=1;entryDx=0;entryDy=0;" edge="1" parent="WIyWlLk6GJQsqaUBKTNV-1" source="k7H9lZoIsquwD9JlWi5O-15" target="k7H9lZoIsquwD9JlWi5O-12">
          <mxGeometry width="160" relative="1" as="geometry">
            <mxPoint x="179" y="276" as="sourcePoint" />
            <mxPoint x="326" y="189" as="targetPoint" />
          </mxGeometry>
        </mxCell>
        <mxCell id="k7H9lZoIsquwD9JlWi5O-26" value="" style="endArrow=block;dashed=1;endFill=0;endSize=12;html=1;rounded=0;exitX=0.573;exitY=-0.077;exitDx=0;exitDy=0;exitPerimeter=0;entryX=0.75;entryY=1;entryDx=0;entryDy=0;" edge="1" parent="WIyWlLk6GJQsqaUBKTNV-1" source="k7H9lZoIsquwD9JlWi5O-21" target="k7H9lZoIsquwD9JlWi5O-12">
          <mxGeometry width="160" relative="1" as="geometry">
            <mxPoint x="189" y="286" as="sourcePoint" />
            <mxPoint x="336" y="199" as="targetPoint" />
          </mxGeometry>
        </mxCell>
        <mxCell id="k7H9lZoIsquwD9JlWi5O-27" value="" style="endArrow=block;dashed=1;endFill=0;endSize=12;html=1;rounded=0;exitX=0.5;exitY=0;exitDx=0;exitDy=0;entryX=0.5;entryY=1;entryDx=0;entryDy=0;" edge="1" parent="WIyWlLk6GJQsqaUBKTNV-1" source="k7H9lZoIsquwD9JlWi5O-22" target="k7H9lZoIsquwD9JlWi5O-13">
          <mxGeometry width="160" relative="1" as="geometry">
            <mxPoint x="199" y="296" as="sourcePoint" />
            <mxPoint x="346" y="209" as="targetPoint" />
          </mxGeometry>
        </mxCell>
        <mxCell id="k7H9lZoIsquwD9JlWi5O-28" value="" style="endArrow=block;dashed=1;endFill=0;endSize=12;html=1;rounded=0;exitX=0.618;exitY=0.038;exitDx=0;exitDy=0;exitPerimeter=0;entryX=0.25;entryY=1;entryDx=0;entryDy=0;" edge="1" parent="WIyWlLk6GJQsqaUBKTNV-1" source="k7H9lZoIsquwD9JlWi5O-23" target="k7H9lZoIsquwD9JlWi5O-14">
          <mxGeometry width="160" relative="1" as="geometry">
            <mxPoint x="209" y="306" as="sourcePoint" />
            <mxPoint x="356" y="219" as="targetPoint" />
          </mxGeometry>
        </mxCell>
        <mxCell id="k7H9lZoIsquwD9JlWi5O-29" value="" style="endArrow=block;dashed=1;endFill=0;endSize=12;html=1;rounded=0;exitX=0.582;exitY=-0.058;exitDx=0;exitDy=0;exitPerimeter=0;entryX=0.836;entryY=1.08;entryDx=0;entryDy=0;entryPerimeter=0;" edge="1" parent="WIyWlLk6GJQsqaUBKTNV-1" source="k7H9lZoIsquwD9JlWi5O-24" target="k7H9lZoIsquwD9JlWi5O-14">
          <mxGeometry width="160" relative="1" as="geometry">
            <mxPoint x="219" y="316" as="sourcePoint" />
            <mxPoint x="366" y="229" as="targetPoint" />
          </mxGeometry>
        </mxCell>
        <mxCell id="k7H9lZoIsquwD9JlWi5O-30" value="" style="endArrow=block;endFill=1;html=1;edgeStyle=orthogonalEdgeStyle;align=left;verticalAlign=top;rounded=0;exitX=1;exitY=0.672;exitDx=0;exitDy=0;exitPerimeter=0;entryX=0;entryY=0.25;entryDx=0;entryDy=0;" edge="1" parent="WIyWlLk6GJQsqaUBKTNV-1" source="k7H9lZoIsquwD9JlWi5O-2" target="k7H9lZoIsquwD9JlWi5O-22">
          <mxGeometry x="-1" relative="1" as="geometry">
            <mxPoint x="100" y="410" as="sourcePoint" />
            <mxPoint x="360" y="560" as="targetPoint" />
          </mxGeometry>
        </mxCell>
        <mxCell id="k7H9lZoIsquwD9JlWi5O-33" value="создание конкретного объекта" style="edgeLabel;html=1;align=center;verticalAlign=middle;resizable=0;points=[];" vertex="1" connectable="0" parent="k7H9lZoIsquwD9JlWi5O-30">
          <mxGeometry x="-0.075" y="3" relative="1" as="geometry">
            <mxPoint as="offset" />
          </mxGeometry>
        </mxCell>
        <mxCell id="k7H9lZoIsquwD9JlWi5O-34" value="" style="endArrow=block;endFill=1;html=1;edgeStyle=orthogonalEdgeStyle;align=left;verticalAlign=top;rounded=0;entryX=1;entryY=0.25;entryDx=0;entryDy=0;" edge="1" parent="WIyWlLk6GJQsqaUBKTNV-1" target="k7H9lZoIsquwD9JlWi5O-22">
          <mxGeometry x="-1" relative="1" as="geometry">
            <mxPoint x="530" y="364" as="sourcePoint" />
            <mxPoint x="400" y="603" as="targetPoint" />
            <Array as="points">
              <mxPoint x="530" y="364" />
              <mxPoint x="530" y="593" />
            </Array>
          </mxGeometry>
        </mxCell>
      </root>
    </mxGraphModel>
  </diagram>
</mxfile>
